<?xml version='1.0' encoding='utf-8'?>
<!DOCTYPE svg PUBLIC '-//W3C//DTD SVG 1.1//EN' 'http://www.w3.org/Graphics/SVG/1.1/DTD/svg11.dtd'>
<svg version="1.1" xmlns="http://www.w3.org/2000/svg" viewBox="0 0 512 512" xmlns:xlink="http://www.w3.org/1999/xlink" enable-background="new 0 0 512 512">
  <g>
    <g>
      <g>
        <path d="m208,177.2h27.7v26.2c0,11.3 9.1,20.4 20.4,20.4 11.3,0 20.4-9.1 20.4-20.4v-26.2h27.7c11.3,0 20.4-9.1 20.4-20.4 0-11.3-9.1-20.4-20.4-20.4h-27.7v-26.2c0-11.3-9.1-20.4-20.4-20.4-11.3,0-20.4,9.1-20.4,20.4v26.2h-27.7c-11.3,0-20.4,9.1-20.4,20.4 0,11.3 9.2,20.4 20.4,20.4z"/>
        <path d="M440.5,10.8H71.8c-11.3,0-20.4,9.1-20.4,20.4v449.2c0,11.3,9.1,20.4,20.4,20.4h368.7c11.3,0,20.4-9.1,20.4-20.4V31.2     C460.9,20,451.8,10.8,440.5,10.8z M420.1,460H92.2V51.7h327.9V460z"/>
        <path d="m157.3,318h197.6c11.3,0 20.4-9.1 20.4-20.4 0-11.3-9.1-20.4-20.4-20.4h-197.6c-11.3,0-20.4,9.1-20.4,20.4 0,11.2 9.1,20.4 20.4,20.4z"/>
        <path d="m157.3,409.6h197.6c11.3,0 20.4-9.1 20.4-20.4 0-11.3-9.1-20.4-20.4-20.4h-197.6c-11.3,0-20.4,9.1-20.4,20.4 0,11.2 9.1,20.4 20.4,20.4z"/>
      </g>
    </g>
  </g>
</svg>
