<?xml version="1.0" encoding="iso-8859-1"?>
<!-- Generator: Adobe Illustrator 16.0.0, SVG Export Plug-In . SVG Version: 6.00 Build 0)  -->
<!DOCTYPE svg PUBLIC "-//W3C//DTD SVG 1.1//EN" "http://www.w3.org/Graphics/SVG/1.1/DTD/svg11.dtd">
<svg version="1.1" id="Capa_1" xmlns="http://www.w3.org/2000/svg" xmlns:xlink="http://www.w3.org/1999/xlink" x="0px" y="0px"
	 width="652.801px" height="652.801px" viewBox="0 0 652.801 652.801" style="enable-background:new 0 0 652.801 652.801;"
	 xml:space="preserve">
<g>
	<g id="_x35__16_">
		<g>
			<path d="M142.8,408h40.8c22.542,0,40.8-18.279,40.8-40.801V326.4c0-22.542-18.258-40.8-40.8-40.8h-40.8
				c-22.542,0-40.8,18.258-40.8,40.8v40.799C102,389.721,120.258,408,142.8,408z M142.8,326.4h40.8v40.799h-40.8V326.4z
				 M469.2,571.199H510c22.542,0,40.801-18.258,40.801-40.799V489.6c0-22.541-18.259-40.799-40.801-40.799h-40.8
				c-22.521,0-40.8,18.258-40.8,40.799V530.4C428.4,552.941,446.658,571.199,469.2,571.199z M469.2,489.6H510V530.4h-40.8V489.6z
				 M469.2,408H510c22.542,0,40.801-18.279,40.801-40.801V326.4c0-22.542-18.259-40.8-40.801-40.8h-40.8
				c-22.521,0-40.8,18.258-40.8,40.8v40.799C428.4,389.721,446.658,408,469.2,408z M469.2,326.4H510v40.799h-40.8V326.4z
				 M550.801,40.8H469.2V20.4c0-11.261-9.139-20.4-20.399-20.4s-20.4,9.139-20.4,20.4v20.4h-204V20.4C224.4,9.139,215.261,0,204,0
				s-20.4,9.139-20.4,20.4v20.4H102c-45.063,0-81.6,36.537-81.6,81.6v448.799c0,45.064,36.537,81.602,81.6,81.602h448.8
				c45.063,0,81.6-36.537,81.6-81.602V122.4C632.4,77.336,595.864,40.8,550.801,40.8z M591.601,571.199
				c0,22.543-18.258,40.801-40.8,40.801H102c-22.542,0-40.8-18.279-40.8-40.801V204h530.4V571.199z M591.601,163.2H61.2v-40.8
				c0-22.542,18.258-40.8,40.8-40.8h81.6V102c0,11.261,9.139,20.4,20.4,20.4s20.4-9.139,20.4-20.4V81.6h204V102
				c0,11.261,9.14,20.4,20.4,20.4S469.2,113.261,469.2,102V81.6h81.601c22.542,0,40.8,18.258,40.8,40.8V163.2z M306,571.199h40.8
				c22.542,0,40.8-18.258,40.8-40.799V489.6c0-22.541-18.258-40.799-40.8-40.799H306c-22.521,0-40.8,18.258-40.8,40.799V530.4
				C265.2,552.941,283.458,571.199,306,571.199z M306,489.6h40.8V530.4H306V489.6z M306,408h40.8c22.542,0,40.8-18.279,40.8-40.801
				V326.4c0-22.542-18.258-40.8-40.8-40.8H306c-22.521,0-40.8,18.258-40.8,40.8v40.799C265.2,389.721,283.458,408,306,408z
				 M306,326.4h40.8v40.799H306V326.4z M142.8,571.199h40.8c22.542,0,40.8-18.258,40.8-40.799V489.6
				c0-22.541-18.258-40.799-40.8-40.799h-40.8c-22.542,0-40.8,18.258-40.8,40.799V530.4C102,552.941,120.258,571.199,142.8,571.199z
				 M142.8,489.6h40.8V530.4h-40.8V489.6z"/>
		</g>
	</g>
</g>
<g>
</g>
<g>
</g>
<g>
</g>
<g>
</g>
<g>
</g>
<g>
</g>
<g>
</g>
<g>
</g>
<g>
</g>
<g>
</g>
<g>
</g>
<g>
</g>
<g>
</g>
<g>
</g>
<g>
</g>
</svg>
